<?xml version="1.0" encoding="utf-8"?>
<!-- Generator: Adobe Illustrator 15.1.0, SVG Export Plug-In . SVG Version: 6.00 Build 0)  -->
<!DOCTYPE svg PUBLIC "-//W3C//DTD SVG 1.1//EN" "http://www.w3.org/Graphics/SVG/1.1/DTD/svg11.dtd">
<svg version="1.1" id="Layer_1" xmlns="http://www.w3.org/2000/svg" xmlns:xlink="http://www.w3.org/1999/xlink" x="0px" y="0px"
	 width="300px" height="300px" viewBox="0 0 300 300" enable-background="new 0 0 300 300" xml:space="preserve">
<path id="bg" fill="#1A0040" d="M300.333,287.919c0,6.856-5.558,12.414-12.414,12.414H12.747c-6.856,0-12.414-5.558-12.414-12.414
	V12.747c0-6.856,5.558-12.414,12.414-12.414h275.172c6.856,0,12.414,5.558,12.414,12.414V287.919z"/>
<path id="check" fill="#F3AB00" d="M291.29,117.559l-0.052,20.235L154.106,239.979l-9.899,7.376l-10.697,7.965l-9.807,7.377
	L75.517,198.91l-9.072-12.01l10.003-6.927c0.497,0.713,1.21,1.359,2.121,1.359h1.686l8.597,11.23l36.962,48.865l8.886-6.688
	l9.869-7.396L291.29,117.559z"/>
<path id="R" fill="#F2F2F2" d="M193.407,292.127l-15.435,0.156l-33.766-44.928l-9.507-12.692l-31.79-42.33H78.569
	c-1.045,0-2.236-0.033-2.236-0.229v20.229h-13v-54h13v18.388c0,1.055-0.098,2.396,0.523,3.253c0.497,0.713,0.802,1.359,1.713,1.359
	h95.638c2.007,0,4.126-2.688,4.126-4.612V81.486c0-1.924-2.119-3.153-4.126-3.153H78.569c-2.007,0-2.236,1.229-2.236,3.153v18.847
	h-13V81.486c0-8.328,6.525-15.153,15.236-15.153h95.638c8.721,0,16.126,6.826,16.126,15.153v95.234
	c0,8.327-7.405,15.612-16.126,15.612h-55.945l26.307,34.953l9.538,12.673L193.407,292.127z"/>
<path id="C" fill="#F2F2F2" d="M144.333,50.333h12V30.792c0-8.322-7.548-14.459-16.261-14.459H44.431
	c-8.712,0-15.098,6.137-15.098,14.459v28.173v38.276v28.795c0,8.323,6.386,16.297,15.098,16.297h95.641
	c8.712,0,16.261-7.974,16.261-16.297v-17.703h-12v10.344v7.359c0,1.918-2.251,4.297-4.261,4.297H44.431
	c-2.008,0-3.098-2.378-3.098-4.297V97.241V58.965V30.792c0-1.918,1.09-3.459,3.098-3.459h95.641c2.009,0,4.261,1.541,4.261,3.459
	v7.361V50.333z"/>
</svg>
